<svg xmlns="http://www.w3.org/2000/svg" width="50" height="50" viewBox="0 0 510 510" preserveAspectRatio="none"><path d="M112 280a64 64 0 1064 64 64.072 64.072 0 00-64-64zm0 112a48 48 0 1148-48 48.053 48.053 0 01-48 48zM352 408a64 64 0 10-64-64 64.072 64.072 0 0064 64zm0-112a48 48 0 11-48 48 48.053 48.053 0 0148-48z" data-original="#000000" class="active-path" data-old_color="#000000" fill="#29B3BA"/><path d="M472 96H189.95a55.768 55.768 0 00-49.322-23.9c-28.4 1.671-51.5 25.262-52.586 53.708a57.2 57.2 0 00-.026 3.233l-36.454 24.3A8 8 0 0056 168h48c.267 0 .531-.014.792-.04A55.487 55.487 0 00144 184c.5 0 1.011-.009 1.54-.025l41.16 27.438a74.664 74.664 0 0033.85 12.183l-4.061 28.429a32.134 32.134 0 00-15.32 19.438l-20.812 5.2A95.987 95.987 0 10189.927 400H216a8 8 0 007.155-4.422L232 377.889l8.845 17.689A8 8 0 00248 400h26.073a96.016 96.016 0 109.573-123.334l-20.812-5.2a31.82 31.82 0 00-3-7.227l10.138-52.885a75.79 75.79 0 0011.3-9.3L323.314 160h7.841a102.92 102.92 0 0055.215-16H472a24 24 0 000-48zm-182.782 54.436L272.72 136h47.446a74.2 74.2 0 01-30.948 14.436zM342.606 112l-6.856 8h-81.315l-9.143-8zm-121.612 0l45.231 39.578a73.791 73.791 0 01-44.692-21.359l-4.562-4.563A30.436 30.436 0 01209.05 112zM91.038 146.256A55.022 55.022 0 0093.384 152H82.422zM232 264a16 16 0 11-16 16 16.019 16.019 0 0116-16zM112 424a80 80 0 1180-80 80.091 80.091 0 01-80 80zm240-160a80 80 0 11-80 80 80.091 80.091 0 0180-80zm-96 80a95.423 95.423 0 008.741 40h-11.8l-13.789-27.578a8 8 0 00-14.31 0L211.056 384h-11.8a95.854 95.854 0 00-7.684-93.648l9.436-2.359a32 32 0 0061.978 0l9.436 2.359A95.453 95.453 0 00256 344zm-9.97-92.753a31.779 31.779 0 00-12.81-3.216l3.5-24.517a74.553 74.553 0 0015.267-3.35zm23.921-60.513a59.331 59.331 0 01-10.987 8.658 8.054 8.054 0 00-.706.43 59.009 59.009 0 01-62.686-1.721L152.2 169.184a8 8 0 00-5.051-1.321 40.113 40.113 0 01-3.146.137 40 40 0 01-39.97-41.581 40 40 0 0174.609-18.412 8 8 0 006.92 3.993h7.132a46.27 46.27 0 0012.962 24.971l4.563 4.562a90.369 90.369 0 0084.954 23.98zM472 128h-88a8.005 8.005 0 00-4.438 1.344 86.948 86.948 0 01-43.569 14.509c0-.115-.009-.229-.016-.343a90.693 90.693 0 006.752-7.067L363.679 112H472a8 8 0 010 16z" data-original="#000000" class="active-path" data-old_color="#000000" fill="#29B3BA"/><circle cx="140.686" cy="116.686" r="11.314" data-original="#000000" class="active-path" data-old_color="#000000" fill="#29B3BA"/><path d="M112 328a8 8 0 000-16 32 32 0 000 64 8 8 0 000-16 16 16 0 010-32zM352 376a8 8 0 000-16 16 16 0 010-32 8 8 0 000-16 32 32 0 000 64z" data-original="#000000" class="active-path" data-old_color="#000000" fill="#29B3BA"/></svg>