<svg xmlns="http://www.w3.org/2000/svg" viewBox="0 0 512.002 512.002"><path d="M490.187 427.578c-5.932 2.844-11.641 6.392-16.968 10.547-21.701 16.927-49.746 16.927-71.449 0-32.294-25.19-75.55-25.474-108.107-.891 9.298-26.029 9.494-25.745 10.423-30.556a95.046 95.046 0 006.811-4.847c21.667-16.9 50.781-16.9 72.447 0 32.587 25.417 75.589 25.513 108.298 0 3.633-2.833 7.5-5.241 11.495-7.155 8.198-3.93 11.192-14.371 5.77-22.108a135.586 135.586 0 002.734-27.052c0-62.232-42.648-115.956-101.097-131.094a14.98 14.98 0 00-18.734 14.5v25.721c0 8.259-6.72 14.979-14.979 14.979H322.43l10.852-30.023c23.674-1.244 42.551-20.895 42.551-44.872 0-12.944-5.508-24.619-14.295-32.827l14.953-41.083c2.829-7.774-1.179-16.369-8.953-19.199-7.772-2.829-16.37 1.178-19.199 8.952l-14.319 39.341a45.517 45.517 0 00-3.125-.121h-70.359l-39.526-26.35c-2.167-1.445-4.441-2.659-6.776-3.693 31.57-1.655 56.745-27.857 56.745-59.831C270.979 26.878 244.101 0 211.063 0c-32.974 0-60.914 26.639-60.914 59.916 0 26.375 17.479 48.115 40.234 56.31-22.943 2.795-40.234 21.922-40.234 44.602v108.794H135.17c-8.259 0-14.979-6.72-14.979-14.979v-25.721c0-9.782-9.251-16.956-18.735-14.501C42.968 229.57.36 283.328.36 345.516c0 8.931.888 17.817 2.621 26.513-.483.709-.924 1.46-1.29 2.27-3.409 7.537-.063 16.412 7.474 19.821 4.428 2.003 8.697 4.598 12.688 7.711 32.588 25.418 75.59 25.513 108.299 0 21.667-16.9 50.782-16.9 72.448 0a95.111 95.111 0 006.602 4.708l-7.242 20.132c-29.425-13.063-63.776-9.181-90.233 11.454-21.703 16.928-49.748 16.926-71.448.001-5.863-4.574-12.177-8.404-18.767-11.385-7.541-3.41-16.413-.064-19.822 7.474-3.409 7.537-.063 16.412 7.474 19.821 4.428 2.003 8.697 4.598 12.688 7.711 32.588 25.418 75.59 25.513 108.299 0 18.41-14.36 41.654-16.667 61.633-6.801a9329.94 9329.94 0 01-5.93 16.447c-2.837 7.77 1.169 16.379 8.948 19.21l56.304 20.493c7.738 2.818 16.358-1.147 19.2-8.952 3.32-9.124 6.226-17.146 8.823-24.341 11.321-3.108 22.162-8.562 31.768-16.055 21.667-16.9 50.781-16.9 72.447 0 32.587 25.417 75.589 25.513 108.298 0 3.633-2.833 7.5-5.241 11.495-7.155 7.46-3.576 10.608-12.522 7.032-19.982-3.575-7.46-12.521-10.609-19.982-7.033zM180.107 59.917c0-16.239 14.176-29.958 30.957-29.958 16.519 0 29.958 13.439 29.958 29.958s-13.439 29.958-29.958 29.958c-16.78 0-30.957-13.719-30.957-29.958zm-.001 100.912c.001-11.84 14.193-19.192 24.287-12.462l43.298 28.866a14.97 14.97 0 008.308 2.515h74.895c8.259 0 14.979 6.72 14.979 14.979s-6.72 14.979-14.979 14.979H226.041c-8.272 0-14.979 6.707-14.979 14.979 0 8.272 6.707 14.979 14.979 14.979h14.979v29.958h-60.914V160.829zm121.297 78.835l-10.829 29.958H270.98v-29.958h30.423zm-27.374 163.665c-8.012 22.011-13.569 38.073-26.76 74.488l-28.183-10.258c11.289-31.347 26.791-74.476 26.791-74.476l-.016-.006v-.001l.017.006c2.825-7.76 11.435-11.778 19.199-8.952 7.699 2.803 11.812 11.344 8.952 19.199zm-13.693-50.053c-16.62-.127-32.388 9.048-40.255 24.227-32.585-24.771-75.978-24.547-108.354.706-21.703 16.928-49.748 16.926-71.448.001a94.873 94.873 0 00-6.283-4.496c-.341-2.636-3.679-12.601-3.679-28.198.001-41.322 23.851-78.118 59.917-95.283v4.411c0 24.778 20.159 44.937 44.937 44.937h144.575l-19.41 53.695zm28.157 10.226L311.6 299.58h65.231c24.778 0 44.937-20.159 44.937-44.937v-4.411c36.065 17.165 59.916 53.962 59.916 95.283 0 16.55-3.584 25.764-3.817 29.296a94.97 94.97 0 00-4.648 3.397c-21.701 16.927-49.746 16.927-71.449 0-30.89-24.094-71.81-25.404-103.803-3.96a44.981 44.981 0 00-9.474-10.746z"/></svg>