<svg xmlns="http://www.w3.org/2000/svg" viewBox="0 0 512 512"><path d="M416 224v-21.333c0-5.891-4.776-10.667-10.667-10.667H106.667C100.776 192 96 196.776 96 202.667V224c0 5.891 4.776 10.667 10.667 10.667h128v170.667c0 5.891 4.776 10.667 10.667 10.667h21.333c5.891 0 10.667-4.776 10.667-10.667V234.667h128c5.89 0 10.666-4.776 10.666-10.667z"/><path d="M132.149 278.176a10.677 10.677 0 00-4.149-.843H32V106.667C32 100.776 27.224 96 21.333 96H10.667C4.776 96 0 100.776 0 106.667v298.667C0 411.224 4.776 416 10.667 416h10.667C27.224 416 32 411.224 32 405.333v-74.667h74.667v74.667c0 5.891 4.776 10.667 10.667 10.667H128c5.891 0 10.667-4.776 10.667-10.667V288a10.668 10.668 0 00-6.518-9.824zM501.333 96h-10.667c-5.89 0-10.666 4.776-10.666 10.667v170.667h-96c-5.891 0-10.667 4.776-10.667 10.667v117.333c0 5.891 4.776 10.667 10.667 10.667h10.667c5.891 0 10.667-4.776 10.667-10.667v-74.667H480v74.667c0 5.891 4.776 10.667 10.667 10.667h10.667c5.891 0 10.667-4.776 10.667-10.667V106.667C512 100.776 507.224 96 501.333 96z"/></svg>