<svg xmlns="http://www.w3.org/2000/svg" height="50" width="50" viewBox="0 0 510 510" preserveAspectRatio="none"><path d="M442 60H206V40c0-5.522-4.478-10-10-10h-30c-11.028 0-20-8.972-20-20 0-5.522-4.478-10-10-10H76c-5.522 0-10 4.478-10 10v20H10C4.478 30 0 34.478 0 40s4.478 10 10 10h56v40H10c-5.522 0-10 4.478-10 10s4.478 10 10 10h56v20c0 5.522 4.478 10 10 10h60c5.522 0 10-4.478 10-10 0-11.028 8.972-20 20-20h30c5.522 0 10-4.478 10-10V80h236c27.57 0 50 22.43 50 50s-22.43 50-50 50H159.42c-18.383 0-34.338 12.457-38.817 30.363L98.136 303H76c-22.056 0-40 17.944-40 40v66c0 22.056 17.944 40 40 40h20v53c0 5.522 4.478 10 10 10h60c5.522 0 10-4.478 10-10v-53h166v53c0 5.522 4.478 10 10 10h60c5.522 0 10-4.478 10-10v-53h20c22.056 0 40-17.944 40-40v-66c0-22.056-17.944-40-40-40h-22.136l-22.483-92.707A40.092 40.092 0 00393.22 200H442c38.598 0 70-31.402 70-70s-31.402-70-70-70zM186 90h-20c-18.604 0-34.283 12.767-38.734 30H86V20h41.266c4.451 17.233 20.13 30 38.734 30h20zm-30 402h-40v-43h40zm246 0h-40v-43h40zm-24.038-276.924L399.285 303H304c-5.522 0-10 4.478-10 10s4.478 10 10 10h138c11.028 0 20 8.972 20 20v66c0 11.028-8.972 20-20 20H76c-11.028 0-20-8.972-20-20v-66c0-11.028 8.972-20 20-20h138c5.522 0 10-4.478 10-10s-4.478-10-10-10h-95.285l21.307-87.854A19.97 19.97 0 01159.42 200h199.16c9.191 0 17.167 6.229 19.382 15.076z" data-original="#000000" class="active-path" data-old_color="#000000" fill="#29B3BA"/><path d="M116.75 366h-30c-5.522 0-10 4.478-10 10s4.478 10 10 10h30c5.522 0 10-4.478 10-10s-4.478-10-10-10zM401.75 386h30c5.522 0 10-4.478 10-10s-4.478-10-10-10h-30c-5.522 0-10 4.478-10 10s4.478 10 10 10zM186 376c0 5.522 4.478 10 10 10h126c5.522 0 10-4.478 10-10s-4.478-10-10-10H196c-5.522 0-10 4.478-10 10z" data-original="#000000" class="active-path" data-old_color="#000000" fill="#29B3BA"/><circle cx="259" cy="313" r="10" data-original="#000000" class="active-path" data-old_color="#000000" fill="#29B3BA"/></svg>