<svg xmlns="http://www.w3.org/2000/svg" xmlns:xlink="http://www.w3.org/1999/xlink" width="50pt" height="50pt" viewBox="0 0 50 50" version="1.1">
<g id="surface1">
<path style=" stroke:none;fill-rule:nonzero;fill:rgb(16.078431%,70.196078%,72.941176%);fill-opacity:1;" d="M 39.0625 34.375 L 18.75 34.375 L 18.75 21.328125 L 35.097656 14.0625 L 15.625 5.40625 L 15.625 34.375 L 10.9375 34.375 C 6.621094 34.375 3.125 37.871094 3.125 42.1875 C 3.125 46.503906 6.621094 50 10.9375 50 L 39.0625 50 C 43.378906 50 46.875 46.503906 46.875 42.1875 C 46.875 37.871094 43.378906 34.375 39.0625 34.375 Z M 18.75 10.21875 L 27.402344 14.0625 L 18.75 17.90625 Z M 39.0625 46.875 L 10.9375 46.875 C 8.347656 46.875 6.25 44.777344 6.25 42.1875 C 6.25 39.597656 8.347656 37.5 10.9375 37.5 L 15.625 37.5 L 15.625 40.625 L 12.5 40.625 L 12.5 43.75 L 21.875 43.75 L 21.875 40.625 L 18.75 40.625 L 18.75 37.5 L 39.0625 37.5 C 41.652344 37.5 43.75 39.597656 43.75 42.1875 C 43.75 44.777344 41.652344 46.875 39.0625 46.875 Z M 15.625 0 L 18.75 0 L 18.75 3.125 L 15.625 3.125 Z M 15.625 0 "/>
<path style=" stroke:none;fill-rule:nonzero;fill:rgb(16.078431%,70.196078%,72.941176%);fill-opacity:1;" d="M 25 40.625 L 28.125 40.625 L 28.125 43.75 L 25 43.75 Z M 25 40.625 "/>
</g>
</svg>