<svg xmlns="http://www.w3.org/2000/svg" viewBox="0 0 512 512"><path d="M511.993 190.848c-.348-57.965-47.422-105.016-105.24-105.016H256.007c-8.656 0-15.673 7.017-15.673 15.673 0 8.656 7.017 15.673 15.673 15.673h150.746c35.231 0 64.763 24.926 72.121 58.159H206.616c-68.255 0-130.676 41.457-156.555 106.455L26.86 340.065l-.008.022-25.727 64.611c-4.097 10.292 3.509 21.471 14.561 21.471h480.641c8.656 0 15.673-7.017 15.673-15.673V191.01c0-.055-.007-.108-.007-.162zm-31.338 203.973H38.797l13.131-32.978h428.728v32.978zm0-64.323H64.407l14.776-37.111c20.86-52.39 71.279-86.705 127.433-86.705h274.04v123.816z"/><ellipse cx="430.791" cy="268.866" rx="21.847" ry="21.953"/></svg>