<svg xmlns="http://www.w3.org/2000/svg" viewBox="0 0 234.765 234.765" width="512" height="512"><path d="M231.019 178.32a7.5 7.5 0 00-10.248 2.736c-6.208 10.731-17.755 17.397-30.135 17.397-12.381 0-23.928-6.666-30.135-17.397a7.5 7.5 0 00-12.984 0c-6.207 10.731-17.754 17.397-30.135 17.397-12.38 0-23.926-6.666-30.134-17.397a7.5 7.5 0 00-12.984 0c-6.208 10.731-17.755 17.397-30.135 17.397-12.379 0-23.927-6.667-30.136-17.398a7.501 7.501 0 00-12.984 7.511c8.881 15.35 25.403 24.886 43.119 24.886 14.023 0 27.298-5.975 36.627-16.077 9.329 10.103 22.604 16.077 36.626 16.077 14.024 0 27.298-5.974 36.628-16.077 9.329 10.103 22.604 16.077 36.627 16.077 17.717 0 34.238-9.536 43.119-24.886a7.498 7.498 0 00-2.736-10.246zM31.014 69.666c13.331 0 24.177-10.846 24.177-24.177 0-13.332-10.846-24.178-24.177-24.178-13.332 0-24.178 10.846-24.178 24.178 0 13.331 10.846 24.177 24.178 24.177zm0-33.355c5.06 0 9.177 4.117 9.177 9.178 0 5.06-4.117 9.177-9.177 9.177-5.061 0-9.178-4.117-9.178-9.177 0-5.061 4.117-9.178 9.178-9.178zM31.014 74.784a7.499 7.499 0 00-6.666 10.937l24.68 47.864a7.501 7.501 0 006.666 4.063h43.103l25.895 27.823a7.478 7.478 0 005.492 2.391 7.5 7.5 0 005.488-12.61l-28.12-30.214a7.5 7.5 0 00-5.49-2.391H60.265L43.319 89.784H74.24a7.494 7.494 0 003.439-.836l16.882-8.712v2.048c0 4.143 3.358 7.5 7.5 7.5s7.5-3.357 7.5-7.5v-6.858h117.702a7.5 7.5 0 007.5-7.5 7.5 7.5 0 00-7.5-7.5H109.562v-6.858a7.5 7.5 0 00-15 0v9.79L72.419 74.784H31.014z" data-original="#000000" class="active-path" data-old_color="#000000" fill="#29B3BA"/></svg>