<svg xmlns="http://www.w3.org/2000/svg" width="50" height="50" viewBox="0 0 510 510" preserveAspectRatio="none"><path d="M434.417 131.891a7.494 7.494 0 00-4.8-4.979c-78.447-26.388-150.761-19.924-153.8-19.634a7.498 7.498 0 00-5.21 2.859l-14.609 18.762-14.609-18.762a7.498 7.498 0 00-5.21-2.859c-3.039-.289-75.354-6.754-153.8 19.634a7.498 7.498 0 00-3.484 11.77c.634.799 15.928 19.736 50.764 34.396 2.924 1.229 6.454.8 8.594-1.541 2.105-2.304 2.704-5.362 1.307-8.128-.126-.562-.299-2.196 1.219-4.282 2.625-3.604 12.717-11.808 50.355-13.187l57.491 308.434a7.5 7.5 0 0014.746 0l57.491-308.434c37.638 1.379 47.73 9.582 50.355 13.187 1.518 2.086 1.346 3.721 1.219 4.282-1.396 2.766-.798 5.824 1.307 8.128 2.14 2.342 5.669 2.771 8.594 1.541 34.836-14.66 50.13-33.598 50.764-34.396a7.498 7.498 0 001.316-6.791zm-48.458 23.033a22.261 22.261 0 00-1.944-3.655c-8.655-13.215-31.304-19.917-69.241-20.488-3.685-.029-6.816 2.532-7.486 6.125l-51.29 275.164-51.29-275.164a7.5 7.5 0 00-7.372-6.126l-.114.001c-37.937.57-60.586 7.272-69.241 20.488a22.261 22.261 0 00-1.944 3.655c-12.385-6.167-21.294-12.635-27.077-17.523 61.908-18.319 118.853-16.266 132.644-15.418l18.478 23.73a7.5 7.5 0 0011.834 0l18.479-23.733c13.784-.857 70.638-2.937 132.641 15.42-5.785 4.891-14.698 11.359-27.077 17.524z" data-original="#000000" class="active-path" data-old_color="#000000" fill="#29B3BA"/><path d="M454.962 83.878a7.5 7.5 0 00-4.185-4.178c-9.729-3.879-20.837-7.45-33.017-10.616a7.5 7.5 0 00-3.774 14.518c8.574 2.229 16.563 4.658 23.848 7.251l-5.195 11.345c-19.211-6.809-78.243-24.344-176.635-24.344-98.398 0-157.436 17.536-176.645 24.345l-5.194-11.344c72.695-25.816 208.716-32.19 309.286-13.915 4.071.745 7.979-1.963 8.72-6.038a7.5 7.5 0 00-6.038-8.72c-50.581-9.192-111.695-12.623-172.085-9.664C151.806 55.57 97.531 65.223 61.222 79.7a7.5 7.5 0 00-4.042 10.089l11.466 25.041c1.694 3.698 6.036 5.366 9.777 3.771.602-.258 61.533-25.747 177.581-25.747s176.969 25.489 177.563 25.743a7.475 7.475 0 002.963.613 7.503 7.503 0 006.823-4.38l11.466-25.041a7.5 7.5 0 00.143-5.911z" data-original="#000000" class="active-path" data-old_color="#000000" fill="#29B3BA"/><path d="M504.5 480.5a7.5 7.5 0 00-7.5 7.5v9H15V71.667c0-4.143-3.358-7.5-7.5-7.5S0 67.524 0 71.667V504.5a7.5 7.5 0 007.5 7.5h497a7.5 7.5 0 007.5-7.5V488a7.5 7.5 0 00-7.5-7.5zM504.5 0H7.5A7.5 7.5 0 000 7.5v31.833c0 4.143 3.358 7.5 7.5 7.5s7.5-3.357 7.5-7.5V15h482v441.667a7.5 7.5 0 007.5 7.5 7.5 7.5 0 007.5-7.5V7.5a7.5 7.5 0 00-7.5-7.5z" data-original="#000000" class="active-path" data-old_color="#000000" fill="#29B3BA"/></svg>