<svg xmlns="http://www.w3.org/2000/svg" viewBox="0 0 475.035 475.035" width="512" height="512"><path d="M474.745 246.278c.018-.064.033-.128.05-.192.061-.237.11-.474.148-.714.01-.067.022-.133.031-.2a7.497 7.497 0 00.017-1.771c-.009-.083-.022-.164-.033-.247a7.488 7.488 0 00-.126-.668c-.017-.073-.031-.145-.051-.218a7.462 7.462 0 00-.28-.849c-.012-.029-.027-.057-.039-.086a7.4 7.4 0 00-.361-.745c-.016-.03-.027-.061-.044-.09-.017-.03-.039-.055-.056-.085a7.474 7.474 0 00-.458-.693l-.052-.074a7.481 7.481 0 00-.606-.695c-.041-.042-.085-.079-.127-.12a7.29 7.29 0 00-.762-.645c-.067-.049-.128-.104-.197-.151L331.38 141.236a7.5 7.5 0 00-9.761 1.08l-23.036 24.886-34.254-49.651a7.501 7.501 0 00-6.174-3.241h-71.644c-11.193 0-20.3 9.106-20.3 20.301 0 11.193 9.106 20.3 20.3 20.3h47.17l33.385 46.339-32.823 35.46h-47.922c-.741 0-1.478.109-2.187.326L5.32 291.541a7.405 7.405 0 00-1.054.417c-.051.024-.101.047-.151.073a7.397 7.397 0 00-.912.545c-.046.032-.089.067-.135.101-.271.199-.53.414-.772.647-.021.021-.044.039-.066.06a7.533 7.533 0 00-.806.949 7.4 7.4 0 00-.559.894c-.016.03-.028.061-.044.09a7.381 7.381 0 00-.401.945c-.014.04-.03.078-.043.118-.11.335-.194.68-.256 1.034-.012.068-.021.137-.031.206-.054.357-.09.722-.09 1.097v30.643c0 .516.053 1.029.158 1.534 3.612 17.285 19.05 29.831 36.708 29.831H276.16c39.849 0 79.213-10.425 113.838-30.148 34.624-19.723 63.669-48.266 83.993-82.541.017-.029.028-.06.045-.088a7.51 7.51 0 00.709-1.67zM181.211 134.611c0-2.923 2.378-5.301 5.3-5.301s5.3 2.378 5.3 5.301c0 2.922-2.378 5.3-5.3 5.3s-5.3-2.378-5.3-5.3zm62.394 8.416a7.498 7.498 0 00-6.085-3.116h-31.436c.459-1.693.726-3.464.726-5.3 0-1.836-.267-3.608-.726-5.301h48.132l33.923 49.172-10.679 11.537-33.855-46.992zm32.555 202.697H36.866c-10.354 0-19.437-7.189-21.866-17.197v-22.311h350.521c4.143 0 7.5-3.357 7.5-7.5s-3.357-7.5-7.5-7.5H57.829l129.611-39.507h203.682c4.143 0 7.5-3.357 7.5-7.5s-3.357-7.5-7.5-7.5H254.683l73.53-79.438 115.233 79.438H429.52c-4.143 0-7.5 3.357-7.5 7.5s3.357 7.5 7.5 7.5h24.359c-39.762 58.309-106.67 94.015-177.719 94.015z" data-original="#000000" class="active-path" data-old_color="#000000" fill="#29B3BA"/></svg>